<?xml version="1.0" encoding="utf-8"?>
<!-- Generator: Adobe Illustrator 21.1.0, SVG Export Plug-In . SVG Version: 6.00 Build 0)  -->
<svg version="1.1" id="Слой_1" xmlns="http://www.w3.org/2000/svg" xmlns:xlink="http://www.w3.org/1999/xlink" x="0px" y="0px"
	 viewBox="0 0 224 224" style="enable-background:new 0 0 224 224;" xml:space="preserve">
<style type="text/css">
	.st0{fill:#FFFFFF;}
</style>
<path class="st0" d="M152.8,63.5c-7.5,0-14.2,4.6-17,11.5c-0.9,2.1-1.3,4.4-1.4,6.8c0,10.1,8.2,18.3,18.3,18.3S171,91.9,171,81.8
	C171,71.7,162.9,63.6,152.8,63.5z M164.2,82.3c-0.2,1.2-1.2,2.1-2.4,2.1h-6.6V91c0,1.3-1.1,2.4-2.4,2.4c-1.3,0-2.4-1.1-2.4-2.4l0,0
	v-6.6h-6.6c-1.2,0-2.3-0.9-2.5-2.1c0-0.1,0-0.2,0-0.3c0-1.3,1.1-2.4,2.4-2.4l0,0h6.6V73c0-1.3,1.1-2.4,2.4-2.4s2.4,1.1,2.4,2.4l0,0
	v6.7h6.6c1.3,0,2.4,1.1,2.4,2.4l0,0C164.3,82.1,164.3,82.2,164.2,82.3z M110.4,102.9c-9.5,0-17.2,7.7-17.2,17.2s7.7,17.2,17.2,17.2
	s17.2-7.7,17.2-17.2C127.6,110.6,119.9,102.9,110.4,102.9L110.4,102.9z M110.4,130.9c-6,0-10.8-4.8-10.8-10.8s4.8-10.8,10.8-10.8
	s10.8,4.8,10.8,10.8C121.2,126.1,116.3,130.9,110.4,130.9L110.4,130.9z M127.6,81.8c0-5,1.5-9.9,4.3-14.1l-1.4-2.5
	c-0.6-1.1-1.7-1.7-2.9-1.7H93.7c-1.2,0-2.3,0.6-2.8,1.7l-9.5,17.1H56.2c-1.8,0-3.2,1.5-3.2,3.2v71.7c0,1.8,1.5,3.2,3.2,3.2h108.3
	c1.8,0,3.2-1.5,3.2-3.2V102c-11.1,8.3-26.9,6-35.2-5.1C129.4,92.5,127.6,87.2,127.6,81.8z M110.4,144.4c-13.4,0-24.3-10.9-24.3-24.3
	S97,95.8,110.4,95.8c13.4,0,24.3,10.9,24.3,24.3S123.8,144.4,110.4,144.4L110.4,144.4z"/>
</svg>
