<?xml version="1.0" encoding="utf-8"?>
<!-- Generator: Adobe Illustrator 19.0.0, SVG Export Plug-In . SVG Version: 6.00 Build 0)  -->
<svg version="1.1" id="Слой_1" xmlns="http://www.w3.org/2000/svg" xmlns:xlink="http://www.w3.org/1999/xlink" x="0px" y="0px"
	 viewBox="-214 239.3 118 118" style="enable-background:new -214 239.3 118 118;" xml:space="preserve">
<style type="text/css">
	.st0{fill:rgba(255,255,255,.4);}
</style>
<path class="st0" d="M-114.2,249.8c-7.5,0-14.2,4.6-17,11.5c-0.9,2.1-1.3,4.4-1.4,6.8c0,10.1,8.2,18.3,18.3,18.3
	c10.1,0,18.3-8.2,18.3-18.3C-96,258-104.1,249.9-114.2,249.8z M-102.8,268.6c-0.2,1.2-1.2,2.1-2.4,2.1h-6.6v6.6
	c0,1.3-1.1,2.4-2.4,2.4c-1.3,0-2.4-1.1-2.4-2.4v0v-6.6h-6.6c-1.2,0-2.3-0.9-2.5-2.1c0-0.1,0-0.2,0-0.3c0-1.3,1.1-2.4,2.4-2.4l0,0
	h6.6v-6.6c0-1.3,1.1-2.4,2.4-2.4c1.3,0,2.4,1.1,2.4,2.4v0v6.7h6.6c1.3,0,2.4,1.1,2.4,2.4l0,0C-102.7,268.4-102.7,268.5-102.8,268.6z
	 M-156.6,289.2c-9.5,0-17.2,7.7-17.2,17.2c0,9.5,7.7,17.2,17.2,17.2s17.2-7.7,17.2-17.2C-139.4,296.9-147.1,289.2-156.6,289.2
	L-156.6,289.2z M-156.6,317.2c-6,0-10.8-4.8-10.8-10.8s4.8-10.8,10.8-10.8c6,0,10.8,4.8,10.8,10.8
	C-145.8,312.4-150.7,317.2-156.6,317.2L-156.6,317.2z M-139.4,268.1c0-5,1.5-9.9,4.3-14.1l-1.4-2.5c-0.6-1.1-1.7-1.7-2.9-1.7h-33.9
	c-1.2,0-2.3,0.6-2.8,1.7l-9.5,17.1h-25.2c-1.8,0-3.2,1.5-3.2,3.2v71.7c0,1.8,1.5,3.2,3.2,3.2h108.3c1.8,0,3.2-1.5,3.2-3.2v-55.2
	c-11.1,8.3-26.9,6-35.2-5.1C-137.6,278.8-139.4,273.5-139.4,268.1z M-156.6,330.7c-13.4,0-24.3-10.9-24.3-24.3s10.9-24.3,24.3-24.3
	c13.4,0,24.3,10.9,24.3,24.3S-143.2,330.7-156.6,330.7L-156.6,330.7z"/>
</svg>
