<?xml version="1.0" encoding="utf-8"?>
<!-- Generator: Adobe Illustrator 22.1.0, SVG Export Plug-In . SVG Version: 6.00 Build 0)  -->
<svg version="1.1" id="Слой_1" xmlns="http://www.w3.org/2000/svg" xmlns:xlink="http://www.w3.org/1999/xlink" x="0px" y="0px"
	 viewBox="0 0 24 24" enable-background="new 0 0 24 24" xml:space="preserve">
<g>
	<g>
		<path fill="#DD2230" d="M10.76,18.582c-0.068,0.057-0.101,0.123-0.101,0.199c0,0.068,0.021,0.122,0.064,0.161
			c0.042,0.04,0.105,0.059,0.189,0.059c0.101,0,0.192-0.026,0.274-0.078c0.081-0.052,0.134-0.111,0.159-0.178v-0.249H11.03
			C10.917,18.497,10.827,18.525,10.76,18.582z"/>
	</g>
	<g>
		<path fill="#DD2230" d="M9.429,17.363H8.918v0.797h0.511c0.14,0,0.244-0.038,0.313-0.112c0.069-0.075,0.103-0.17,0.103-0.284
			c0-0.114-0.035-0.21-0.104-0.286C9.672,17.401,9.568,17.363,9.429,17.363z"/>
	</g>
	<g>
		<path fill="#DD2230" d="M23.475,17.344L14.993,3.093c-0.612-1.117-1.755-1.755-3.005-1.755c-1.25,0-2.393,0.638-3.031,1.728
			L0.502,17.344c-0.665,1.09-0.665,2.446-0.027,3.536s1.781,1.781,3.084,1.781h16.884c1.303,0,2.446-0.665,3.084-1.781
			C24.166,19.791,24.166,18.435,23.475,17.344z M11.094,6.68c0-0.514,0.391-0.905,0.905-0.905s0.926,0.432,0.905,0.926v4.856
			c0,0.514-0.391,0.905-0.905,0.905s-0.905-0.391-0.905-0.905V6.68z M9.942,18.211c-0.122,0.112-0.293,0.168-0.513,0.168H8.918
			v0.828H8.639v-2.065h0.79c0.22,0,0.391,0.057,0.513,0.17s0.183,0.263,0.183,0.448C10.125,17.949,10.064,18.099,9.942,18.211z
			 M11.375,19.207c-0.01-0.046-0.017-0.087-0.022-0.123c-0.005-0.035-0.008-0.071-0.009-0.107c-0.052,0.074-0.12,0.135-0.203,0.185
			c-0.084,0.05-0.174,0.074-0.27,0.074c-0.16,0-0.282-0.041-0.365-0.123c-0.083-0.082-0.125-0.195-0.125-0.338
			c0-0.146,0.059-0.261,0.178-0.344c0.119-0.083,0.28-0.124,0.483-0.124h0.304v-0.152c0-0.09-0.027-0.161-0.082-0.213
			c-0.055-0.052-0.132-0.079-0.233-0.079c-0.09,0-0.163,0.023-0.219,0.069c-0.056,0.046-0.084,0.101-0.084,0.165h-0.266
			l-0.003-0.009c-0.006-0.111,0.047-0.214,0.158-0.306c0.111-0.093,0.255-0.139,0.43-0.139c0.174,0,0.314,0.044,0.42,0.133
			c0.106,0.088,0.159,0.216,0.159,0.382v0.739c0,0.055,0.003,0.108,0.008,0.159c0.006,0.051,0.016,0.101,0.031,0.15H11.375z
			 M11.094,14.19v-0.309c0-0.514,0.391-0.905,0.905-0.905s0.926,0.391,0.905,0.905v0.309c0,0.514-0.391,0.905-0.905,0.905
			S11.094,14.704,11.094,14.19z M13.273,19.207h-0.279v-0.963c0-0.135-0.027-0.231-0.08-0.288c-0.053-0.057-0.135-0.085-0.245-0.085
			c-0.08,0-0.151,0.019-0.213,0.058c-0.062,0.039-0.111,0.092-0.148,0.159v1.119h-0.279v-1.534h0.25l0.02,0.228
			c0.051-0.081,0.115-0.144,0.192-0.189c0.077-0.045,0.165-0.068,0.263-0.068c0.165,0,0.293,0.049,0.384,0.145
			c0.091,0.097,0.136,0.247,0.136,0.449V19.207z M13.981,19.207h-0.279v-1.534h0.279V19.207z M13.981,17.28h-0.279v-0.285h0.279
			V17.28z M14.72,18.861c0.062,0.104,0.167,0.157,0.315,0.157c0.093,0,0.174-0.029,0.245-0.086c0.07-0.057,0.105-0.127,0.105-0.21
			h0.251l0.003,0.008c0.005,0.132-0.054,0.25-0.177,0.353c-0.122,0.103-0.265,0.154-0.428,0.154c-0.223,0-0.394-0.073-0.512-0.218
			c-0.118-0.146-0.177-0.328-0.177-0.549v-0.06c0-0.218,0.059-0.401,0.178-0.547c0.119-0.146,0.289-0.219,0.511-0.219
			c0.18,0,0.326,0.053,0.44,0.159c0.114,0.106,0.169,0.236,0.165,0.39l-0.003,0.008h-0.252c0-0.094-0.033-0.173-0.099-0.239
			c-0.066-0.066-0.15-0.099-0.251-0.099c-0.146,0-0.251,0.053-0.314,0.158c-0.063,0.105-0.094,0.235-0.094,0.387v0.06
			C14.626,18.626,14.657,18.757,14.72,18.861z"/>
	</g>
</g>
</svg>
