<?xml version="1.0" encoding="utf-8"?>
<!-- Generator: Adobe Illustrator 19.0.0, SVG Export Plug-In . SVG Version: 6.00 Build 0)  -->
<svg version="1.1" id="Слой_1" xmlns="http://www.w3.org/2000/svg" xmlns:xlink="http://www.w3.org/1999/xlink" x="0px" y="0px"
	 viewBox="0 0 72 72" style="enable-background:new 0 0 72 72;" xml:space="preserve">
<style type="text/css">
	.st0{fill:#1D5886;}
</style>
<g>
	<g id="XMLID_37_">
		<path id="XMLID_38_" class="st0" d="M36,0C16.1,0,0,16.1,0,36s16.1,36,36,36c19.9,0,36-16.1,36-36S55.9,0,36,0z M36,22.7
			c3.7,0,6.7,3,6.7,6.7c0,3.7-3,6.7-6.7,6.7s-6.7-3-6.7-6.7C29.3,25.6,32.3,22.7,36,22.7z M49,49.6H23V46c0-4.4,8.6-6.7,13-6.7
			s13,2.2,13,6.7V49.6z"/>
	</g>
</g>
</svg>
