<?xml version="1.0" encoding="utf-8"?>
<!-- Generator: Adobe Illustrator 22.1.0, SVG Export Plug-In . SVG Version: 6.00 Build 0)  -->
<svg version="1.1" id="Слой_1" xmlns="http://www.w3.org/2000/svg" xmlns:xlink="http://www.w3.org/1999/xlink" x="0px" y="0px"
	 viewBox="0 0 62 62" style="enable-background:new 0 0 62 62;" xml:space="preserve">
<style type="text/css">
	.st0{fill:url(#XMLID_3_);}
	.st1{fill:#4cd964;}
	.st2{fill:#FFFFFF;}
</style>
<g>
	<g>
		<linearGradient id="XMLID_3_" gradientUnits="userSpaceOnUse" x1="39.7894" y1="42.2484" x2="38.4995" y2="56.9925">
			<stop  offset="0" style="stop-color:#FFFFFF;stop-opacity:0"/>
			<stop  offset="1" style="stop-color:#000000;stop-opacity:0.5"/>
		</linearGradient>
		<polygon id="XMLID_13_" class="st0" points="18.7,55.3 62,44.8 17.5,40.3 		"/>
		<g id="XMLID_5_">
			<path class="st1" d="M18.7,6.7c-10,0-18.2,8.1-18.2,18.2c0,15.2,16.6,30.3,18.2,30.3c1.3,0,18.2-15.2,18.2-30.3
				C36.9,14.9,28.8,6.7,18.7,6.7z"/>
			<path class="st2" d="M18.7,55.8C16.6,55.8,0,40.1,0,24.9C0,14.6,8.4,6.2,18.7,6.2s18.7,8.4,18.7,18.7c0,8.1-4.7,16-8.7,21.2
				C24.5,51.4,19.7,55.8,18.7,55.8z M18.7,7.2C8.9,7.2,1,15.2,1,24.9c0,14.9,16.4,29.6,17.7,29.8c1.4-0.4,17.7-15.3,17.7-29.8
				C36.4,15.2,28.5,7.2,18.7,7.2z"/>
		</g>
	</g>
	<polygon class="st2" points="24.7,28.2 20.9,28.2 20.9,32 16.5,32 16.5,28.2 12.7,28.2 12.7,23.7 16.5,23.7 16.5,19.9 20.9,19.9 
		20.9,23.7 24.7,23.7 	"/>
</g>
</svg>
