<?xml version="1.0" standalone="no"?>
<!DOCTYPE svg PUBLIC "-//W3C//DTD SVG 1.1//EN" "http://www.w3.org/Graphics/SVG/1.1/DTD/svg11.dtd">
<svg xmlns="http://www.w3.org/2000/svg">
<metadata>Generated by Fontastic.me</metadata>
<defs>
<font id="m2mdata-controller" horiz-adv-x="512">
<font-face font-family="m2mdata-controller" units-per-em="512" ascent="480" descent="-32"/>
<missing-glyph horiz-adv-x="512" />

<glyph glyph-name="header-apply" unicode="&#97;" d="M162 144l-121 121-41-42 162-162 350 349-41 41z"/>
<glyph glyph-name="header-arrow-back" unicode="&#98;" d="M512 287l-390 0 180 179-46 46-256-256 256-256 46 46-180 179 390 0z"/>
<glyph glyph-name="header-chat" unicode="&#99;" d="M496 182l0 236c0 26-10 50-27 66-17 18-41 28-67 28l-292 0c-26 0-50-10-67-27-17-17-27-41-27-67l0-236c0-26 10-50 27-65 17-16 39-27 65-27l176 0 118-86c6-4 16-3 20 3 3 4 3 9 3 13l-15 70c22 1 44 11 59 27 16 15 27 39 27 65z m-330 104c0-19-15-34-34-34-18-2-32 14-32 34 0 18 15 34 34 34 17 0 32-16 32-34z m214-34c-19 0-34 15-34 34 0 18 15 34 34 34 18 0 34-16 34-34 0-19-16-34-34-34z m-124 0c-18 0-34 15-34 34 0 18 16 34 34 34 18 0 34-16 34-34 0-19-16-34-34-34z"/>
<glyph glyph-name="header-delete" unicode="&#100;" d="M85 57c0-31 26-57 57-57l228 0c31 0 57 26 57 57l0 341-342 0z m370 427l-99 0-29 28-142 0-29-28-99 0 0-57 398 0z"/>
<glyph glyph-name="header-history" unicode="&#101;" d="M256 512c-141 0-256-115-256-256 0-141 115-256 256-256 141 0 256 115 256 256 0 141-115 256-256 256z m34-270c0-12-8-20-20-20l-159 0c-11 0-20 8-20 20 0 11 9 20 20 20l139 0 0 139c0 11 9 20 20 20 12 0 20-9 20-20z"/>
<glyph glyph-name="header-manu" unicode="&#102;" d="M0 445l512 0 0-67-512 0z m0-156l356 0 0-67-356 0z m0-155l178 0 0-67-178 0z"/>
<glyph glyph-name="header-menu-2" unicode="&#103;" d="M117 430c0-33-26-59-59-59-32 0-58 26-58 59 0 32 26 58 58 58 33 0 59-26 59-58z m0-174c0-32-26-58-59-58-32 0-58 26-58 58 0 32 26 58 58 58 33 0 59-26 59-58z m0-172c0-32-26-58-59-58-32 0-58 26-58 58 0 32 26 58 58 58 33 0 59-26 59-58z m351 304l-233 0c-25 0-44 20-44 44 0 25 19 44 44 44l234 0c23-1 43-21 43-45 0-24-20-43-44-43z m0-176l-233 0c-25 0-44 20-44 44 0 24 19 44 44 44l234 0c25 0 44-20 44-44-1-24-21-44-45-44z m0-172l-233 0c-25 0-44 20-44 44 0 24 19 44 44 44l234 0c25 0 44-20 44-44-1-26-21-44-45-44z"/>
<glyph glyph-name="header-notification" unicode="&#104;" d="M192 64l128 0c0-36-28-64-64-64-36 0-64 28-64 64z m67 448c-27 1-50-18-50-46 0-1 0-1 0-2l0-25c-57-19-95-73-95-135l0-39c0-26-10-50-29-69l-7-7c-13-14-17-34-8-51 8-16 24-26 42-26l292 0c26 0 45 20 45 46l0 1c0 12-4 22-10 30l-14 17c-15 17-23 40-23 63l0 37c0 61-38 115-95 135l0 20c-3 27-23 50-48 51z"/>
<glyph glyph-name="header-notification2" unicode="&#105;" d="M193 63l127 0c0-36-28-63-63-63-34 0-64 28-64 63z m66 442c-26 1-49-19-50-44 0-2 0-2 0-3l0-24c-57-20-95-74-95-134l0-40c0-25-10-50-29-67l-7-7c-13-12-17-34-8-51 8-16 24-25 42-25l289 0c24 0 44 19 44 44l0 1c0 10-4 21-10 28l-14 16c-14 17-23 39-23 61l0 36c0 60-38 114-95 134l0 25c0 26-19 48-44 50z m176-71c0-43-35-78-78-78-43 0-78 35-78 78 0 43 35 78 78 78 43 0 78-35 78-78z"/>
<glyph glyph-name="menu-credits" unicode="&#106;" d="M0 121c0-19 14-34 34-34l445 0c19 0 34 14 34 34l0 173-513 0z m385 75c12 0 22-5 29-13 7 8 17 13 28 13 22 0 39-17 39-38 0-21-17-39-39-39-11 0-21 6-28 13-7-7-17-13-29-13-21 0-38 18-38 39 0 21 17 38 38 38z m93 229l-444 0c-20 0-34-15-34-34l0-58 512 0 0 58c0 19-14 34-34 34z"/>
<glyph glyph-name="menu-home" unicode="&#107;" d="M256 512c-141 0-256-115-256-256 0-141 115-256 256-256 141 0 256 115 256 256 0 141-115 256-256 256z m118-374l-87 0 0 84-61 0 0-84-88 0 0 175 118 91 118-91z"/>
<glyph glyph-name="menu-settings" unicode="&#108;" d="M220 511l-18-62c-16-4-31-11-46-19l-56 32-52-52 32-56c-9-15-15-30-19-46l-62-18 0-72 62-18c4-16 12-31 19-46l-32-56 52-52 56 32c15-9 30-15 46-19l18-62 72 0 18 62c16 4 31 12 46 19l56-32 52 52-32 56c9 15 15 30 19 46l62 18 0 72-62 18c-4 16-12 31-19 46l32 56-52 52-56-32c-15 9-30 15-46 19l-18 62z m36-139c64 0 117-53 117-117 0-64-53-116-117-116-64 0-117 52-117 116 0 64 53 117 117 117z m0-70c-26 0-47-20-47-47 0-27 20-46 47-46 27 0 47 19 47 46 0 27-21 47-47 47z"/>
<glyph glyph-name="menu-sign-out" unicode="&#109;" d="M256 512c-141 0-256-115-256-256 0-141 115-256 256-256 141 0 256 115 256 256 0 141-115 256-256 256z m-20-127c0 12 9 20 20 20 6 0 10-3 14-5 3-3 6-9 6-13l0-9c0-44 0-91 0-136 0-10-9-19-20-19-11 0-20 9-20 19 0 17 0 34 0 51 0 7 0 14 0 21l0 6c0 6 0 10 0 14 0 17 0 36 0 51z m46-277c-77-14-151 36-167 112 0 0 0 2 0 2-7 48 6 91 40 126 4 5 9 8 14 8 6 0 10-2 14-6 5-4 6-9 8-14 0-6-2-10-6-15-16-15-26-35-29-56-8-56 32-109 87-116 56-8 108 32 115 87 5 33-5 61-28 84-6 7-9 13-6 21 3 10 14 17 24 13 3-1 6-3 9-6 24-24 38-54 41-89 0-3 0-6 0-9 0-1 0-3 0-4 0-67-48-125-116-138z"/>
<glyph glyph-name="other-acc" unicode="&#110;" d="M468 462l-117 0c-24 0-35-21-35-45l0-125c0-25 11-47 35-47l23 0 0-153c0-1-3-4-1-5l35-37c2-2 4-2 6 0l37 37c1 1 3 3 3 5l0 19c0 3-2 4-3 6l-20 20c-1 1-1 2 0 4l17 17c4 4 4 11 0 16l-17 17c-1 1-1 2 0 4l20 20c1 1 3 4 3 5l0 23 15 0c25 0 44 23 44 47l0 127c-1 25-21 45-45 45z m-54-143c-20 0-37 17-37 37 0 19 16 37 37 37 20 0 37-16 37-37-2-22-17-37-37-37z m-138-26l0 124c0 14-7 5 0 25l-20 0c-4 0-9 7-13 7-25 0-51 2-77-1-18-3-44-7-61-33-10-14-25-51-38-82-7 8-19 13-30 13l-11 0c-15 0-26-9-26-23l0-19c0-14 13-17 27-37l13 0c-2 0-2 2-3 0-13-20-17-37-17-59l0-128c0-15 10-29 26-29l34 0c14 0 20 14 20 29l0 11 236 0 0 122c-60 9-60 42-60 80z m-101-88c-3-9-10-17-20-17l-48 0c-12 0-22 11-22 22l0 15c0 11 10 21 22 21 1 0 3 0 5 0l50-14c10-4 17-17 13-27z"/>
<glyph glyph-name="other-activation" unicode="&#111;" d="M256 512c-141 0-256-115-256-256 0-141 115-256 256-256 141 0 256 115 256 256 0 141-115 256-256 256z m-34-375l-118 119 51 51 68-68 135 135 52-51z"/>
<glyph glyph-name="other-address" unicode="&#112;" d="M256 512c-107 0-192-85-192-192 0-161 175-320 192-320 13 0 192 159 192 320 0 107-85 192-192 192z m0-267c-41 0-74 34-74 74 0 39 34 74 74 74 40 0 74-35 74-74 0-40-33-74-74-74z"/>
<glyph glyph-name="other-arrow" unicode="&#113;" d="M0 382l256-252 256 252z"/>
<glyph glyph-name="other-asset" unicode="&#114;" d="M94 449l284 0 0-15-284 0z m284 45c0 0-69 18-142 18-74 0-142-18-142-18l0-25 284 0z m19-362l-26-7c-45 39-72 130-84 171l-62 0c7-17 51-135 30-205l-26-7 21-71 26 7c18-16 43-23 68-16 24 7 43 27 49 50l25 7z m-60-105c-24-7-51 7-58 31-7 24 7 52 31 59 24 7 51-7 58-32 7-25-7-51-31-58z m1 253l40-1 0 135-284 0 0-135 40 0 0 1c0 13 11 24 24 24l156 0c13 0 24-11 24-24z m-102 58c-13 0-24 10-24 25 0 12 10 24 24 24 13 0 24-10 24-24 0-13-11-25-24-25z"/>
<glyph glyph-name="other-asset-details" unicode="&#115;" d="M220 511l-18-62c-16-4-31-11-46-19l-56 32-52-52 32-56c-9-15-15-30-19-46l-62-18 0-72 62-18c4-16 12-31 19-46l-32-56 52-52 56 32c15-9 30-15 46-19l18-62 72 0 18 62c16 4 31 12 46 19l56-32 52 52-32 56c9 15 15 30 19 46l62 18 0 72-62 18c-4 16-12 31-19 46l32 56-52 52-56-32c-15 9-30 15-46 19l-18 62z m36-139c64 0 117-53 117-117 0-64-53-116-117-116-64 0-117 52-117 116 0 64 53 117 117 117z m0-70c-26 0-47-20-47-47 0-27 20-46 47-46 27 0 47 19 47 46 0 27-21 47-47 47z"/>
<glyph glyph-name="other-barcode" unicode="&#116;" d="M38 414l93 0 0 38-131 0 0-131 38 0z m343 38l0-38 93 0 0-93 38 0 0 131z m93-354l-93 0 0-38 131 0 0 131-38 0z m-436 93l-38 0 0-131 131 0 0 38-93 0z m120 186c-6 0-12-6-12-11l0-220c0-5 6-11 12-11 6 0 11 6 11 11l0 220c0 5-5 11-11 11z m87 0l-36 0c-6 0-11-4-11-11l0-220c0-5 4-11 11-11l36 0c5 0 11 4 11 11l0 220c0 7-6 11-11 11z m49 0c-5 0-11-6-11-11l0-220c0-5 6-11 11-11 6 0 12 6 12 11l0 220c1 5-4 11-12 11z m53 0c-6 0-11-6-11-11l0-220c0-5 5-11 11-11 6 0 11 6 11 11l0 220c0 5-5 11-11 11z m75 0l-25 0c-6 0-12-4-12-11l0-220c0-5 5-11 12-11l25 0c6 0 12 4 12 11l0 220c0 7-4 11-12 11z m-315 0l-17 0c-6 0-12-4-12-11l0-220c0-5 4-11 12-11l18 0c6 0 11 4 11 11l0 220c-1 7-5 11-12 11z"/>
<glyph glyph-name="other-battery" unicode="&#117;" d="M465 381l-418 0c-27 0-47-21-47-47l0-233c0-26 21-47 47-47l419 0c26 0 47 21 47 47l0 233c-1 27-21 47-48 47z m-300-178l-68 0c-9 0-15 7-15 15 0 7 8 14 15 14l68 0c9 0 14-7 14-14 0-8-5-15-14-15z m253 0l-18 0 0-18c0-9-7-14-15-14-7 0-14 7-14 14l0 18-18 0c-9 0-15 7-15 15 0 8 8 14 15 14l17 0 0 18c0 9 7 15 14 15 9 0 14-8 14-15l0-18 19 0c8 0 14-7 14-14 0-8-6-15-13-15z m-230 219c0 17-12 33-27 33l-57 0c-14 0-27-14-27-33l0-28 111 0z m251 2c0 17-11 33-27 33l-56 0c-15 0-27-15-27-33l0-29 110 0z"/>
<glyph glyph-name="other-clear" unicode="&#118;" d="M512 472l-40 40-216-216-216 216-40-40 216-216-216-216 40-40 216 216 216-216 40 40-216 216z"/>
<glyph glyph-name="other-commands" unicode="&#119;" d="M479 471l-446 0c-17 0-33-16-33-34l0-362c0-18 16-32 33-32l445 0c18 0 33 15 33 32l0 362c1 18-15 34-32 34z m-324-309c-9-8-21-8-28 0-9 9-9 21 0 29l64 64-64 64c-9 8-9 21 0 28 8 9 21 9 28 0l78-78c5-4 6-10 6-14 0-6-1-10-6-15z m216-6l-111 0c-11 0-20 9-20 20 0 12 9 20 20 20l111 0c12 0 20-8 20-20 0-10-8-20-20-20z"/>
<glyph glyph-name="other-coordinates" unicode="&#120;" d="M512 256l-132 110 0-79-93 0 0 93 79 0-110 132-110-132 79 0 0-93-93 0 0 79-132-110 132-110 0 79 93 0 0-93-79 0 110-132 110 132-79 0 0 93 93 0 0-79z"/>
<glyph glyph-name="other-custom" unicode="&#121;" d="M508 78l-224 388c-12 22-42 22-55 0l-225-388c-13-21 3-48 27-48l448 0c26 0 42 27 29 48z m-259 269c13 3 27-3 33-16 2-4 2-10 2-14-1-14-1-28-2-43-2-21-3-44-5-66 0-7 0-13-1-22 0-11-10-21-21-21-12 0-22 9-22 20-1 34-4 68-5 102 0 9-2 19-2 27 2 17 10 30 23 33z m7-257c-16 0-28 12-28 28 0 16 12 28 28 28 16 0 28-12 28-29 0-15-12-27-28-27z"/>
<glyph glyph-name="other-data" unicode="&#122;" d="M476 442c0-38-99-69-220-69-121 0-220 31-220 69 0 39 98 70 220 70 122 0 220-31 220-70z m0-372c0-39-99-70-220-70-121 0-219 31-220 68l0 91c0-38 99-68 220-68 121 0 219 31 220 68z m0 123c0-38-99-69-220-69-121 0-219 31-220 68l0 91c0-38 99-68 220-68 121 0 219 31 220 68z m0 126c0-39-99-70-220-70-121 0-219 31-220 68l0 90c0-39 99-69 220-69 121 0 219 32 220 69z"/>
<glyph glyph-name="other-date" unicode="&#65;" d="M466 256c0 9 8 16 16 16l30 0c-4 59-28 112-64 153l-21-20c-3-3-7-4-12-4-4 0-8 1-11 4-7 7-7 17 0 23l21 20c-41 37-95 60-153 64l0-28c0-9-7-16-16-16-9 0-17 6-17 16l0 28c-58-3-111-27-152-64l21-21c6-6 6-16 0-23-4-3-8-4-13-4-4 0-8 1-11 4l-20 21c-37-41-61-94-64-153l30 0c8 0 16-7 16-16 0-9-8-16-16-16l-30 0c3-58 27-112 64-153l21 21c7 7 17 7 23 0 7-7 7-17 0-23l-21-21c41-37 94-60 153-64l0 30c0 8 7 16 16 16 9 0 16-8 16-16l0-30c58 3 112 27 153 64l-21 21c-7 7-7 17 0 23 7 7 17 7 23 0l21-20c37 41 60 94 64 154l-30 0c-8-2-16 5-16 14z m-115-16l-95 0c-7 0-13 5-16 10l-64 151c-4 9 0 19 9 21 8 3 18 0 21-8l61-142 84 0c9 0 16-7 16-16 0-9-7-16-16-16z"/>
<glyph glyph-name="other-email" unicode="&#66;" d="M461 461l-410 0c-28 0-51-23-51-51l0-308c0-28 23-51 51-51l410 0c28 0 51 23 51 51l0 308c0 28-23 51-51 51z m0-103l-205-128-205 128 0 52 205-128 205 128z"/>
<glyph glyph-name="other-gprs" unicode="&#67;" d="M100 228l54-53c2-3 8-3 12 0 26 20 57 31 90 31 33 0 65-11 91-32 4-3 10-3 13 0l52 54c5 4 5 10 0 12-88 83-230 77-312 0-5-2-3-10 0-12z m98-100l51-50c4-4 10-4 13 0l49 51c5 5 3 12-1 15-30 22-80 21-111-2-4-4-6-11-1-14z m-195 195l52-53c5-4 10-4 13 0 53 47 115 71 188 71 73 0 135-25 188-72 4-3 10-3 13 0l52 52c4 5 4 10 0 15-148 140-378 125-506 0-4-3-4-9 0-13z"/>
<glyph glyph-name="other-gps" unicode="&#68;" d="M415 58l-11 27 50 50 12-27z m-207 308l27-13-50-50-27 13z m-101 99l27-13-49-48-27 11z m196-279l50 50 13-27-50-50z m208-75l-32 68c0 2-1 3-3 4 0 0-1 2-1 2-1 1-1 1-3 3-1 0-1 1-3 1 0 0-1 2-1 2l-61 28-29 61c2 6 2 10 2 16 0 0 0 0 0 1 5-1 11-1 17-1 25 0 51 10 71 30 8 8 8 21 0 30l-112 112c-9 8-23 8-30 0-24-24-33-58-29-90-5 0-10 0-15-1 0 0-2 0-2 1l-61 29-28 61c0 1-2 3-3 4 0 0-2 2-2 2 0 1-1 1-1 2-2 0-2 2-3 2 0 0-1 1-1 1l-70 32c-7 2-17 1-23-5l-82-82c-5-4-7-12-6-19 1-7 6-12 13-15l61-29 28-61c0-1 2-3 3-4 0 0 2-2 2-2 1-1 1-1 3-2 0 0 1 0 1-2 1 0 1-1 3-1l52-24c-1-5-1-8-1-12l-65-20c-8-3-13-8-15-15-1-8 0-15 6-20l38-39-38-38c-9-9-9-21 0-30 4-4 10-6 16-6 5 0 11 2 15 6l39 38 38-38c4-4 10-6 16-6 1 0 3 0 5 0 8 2 13 7 16 15l20 64c4 0 7 1 11 1l25-53c0-1 1-2 2-4 0 0 2-1 2-1 1-2 1-2 3-3 1 0 1-2 3-2 0 0 1-1 1-1l61-28 29-62c2-5 8-11 15-12 2 0 3 0 4 0 6 0 12 2 16 5l81 81c3 9 4 19 2 26z m-39 323c0-14-11-24-24-24-13 0-24 10-24 24 0 13 11 24 24 24 13 0 24-11 24-24z"/>
<glyph glyph-name="other-gsm" unicode="&#69;" d="M165 438c-6 6-13 6-19 0-61-61-61-159 0-220 3-3 6-5 10-5 5 0 8 2 10 5 6 5 6 12 0 18-52 50-52 132-1 182 6 6 6 14 0 20z m183-220c3-3 6-5 10-5 3 0 8 2 10 5 62 61 62 159 0 220-5 6-12 6-18 0-6-6-6-13 0-18 50-50 50-133 0-182-7-6-7-15-2-20z m-263-76c3 0 7 2 10 4 6 6 6 13 0 19-89 90-89 235 0 323 5 7 5 14-1 20-6 5-13 5-19 0-99-100-99-262 0-362 3-2 6-4 10-4z m333 367c-6-6-6-13 0-18 90-90 90-235 0-323-6-6-6-13 0-19 3-3 6-4 10-4 3 0 7 1 10 4 100 100 100 262 0 362-6 2-14 2-20-2z m-116-136c-26 25-67 25-92 0-25-26-25-67 0-91 3-3 8-6 12-9l-97-245c-3-8 0-18 7-24 3-3 7-4 13-4 6 0 10 1 13 4l99 86 100-86c4-3 9-4 13-4 4 0 8 1 13 4 7 6 10 16 7 24l-98 246c4 3 7 6 11 9 24 24 24 64-1 90z m-143-330l39 96 37-32z m194 0l-76 65 37 33z m-49 123l-48-41-48 41 38 97c3 0 6 0 10 0 3 0 6 0 10 0z"/>
<glyph glyph-name="other-history" unicode="&#70;" d="M256 512c-141 0-256-115-256-256 0-141 115-256 256-256 141 0 256 115 256 256 0 141-115 256-256 256z m34-270c0-12-8-20-20-20l-159 0c-11 0-20 8-20 20 0 11 9 20 20 20l139 0 0 139c0 11 9 20 20 20 12 0 20-9 20-20z"/>
<glyph glyph-name="other-imei" unicode="&#71;" d="M438 425l-78 77c-6 6-14 10-23 10l-208 0c-35 0-64-28-64-64l0-384c0-36 29-64 64-64l255 0c36 0 64 28 64 64l0 338c-1 9-4 18-10 23z m-255-365l-27 0c-17 0-32 14-32 32l0 27c0 5 4 9 8 9l51 0c5 0 9-4 9-9l0-51c0-4-4-8-9-8z m0 195l-49 0c-5 0-9 4-9 8l0 27c0 17 14 33 33 33l27 0c4 0 8-4 8-9l0-51c-1-4-5-8-10-8z m97-195l-48 0c-4 0-9 4-9 8l0 51c0 5 5 9 9 9l48 0c4 0 9-4 9-9l0-51c0-4-5-8-9-8z m0 196l-48 0c-4 0-9 4-9 9l0 51c0 4 5 8 9 8l48 0c4 0 9-4 9-8l0-51c0-6-5-9-9-9z m107-164c0-17-14-32-33-32l-27 0c-4 0-8 4-8 8l0 51c0 5 4 9 8 9l51 0c5 0 9-4 9-9z m-262 74l0 49c0 4 4 8 9 8l246 0c4 0 8-4 8-8l0-49c0-4-4-8-8-8l-246 0c-6 1-9 4-9 8z m253 90l-51 0c-4 0-8 4-8 9l0 51c0 4 4 8 8 8l29 0c17 0 32-14 32-32l0-27c-1-6-4-9-10-9z"/>
<glyph glyph-name="other-info" unicode="&#72;" d="M256 512c-141 0-256-115-256-256 0-141 115-256 256-256 141 0 256 115 256 256 0 141-115 256-256 256z m31-393l-64 0 0 161 64 0z m0 210l-64 0 0 64 64 0z"/>
<glyph glyph-name="other-language" unicode="&#73;" d="M198 16l-2 1c-1 3-3 6-4 9l-1 2c-5 8-8 15-10 23l-2 3c0 1-1 4-1 6l-86 0c33-27 72-46 113-54-3 3-6 7-7 10z m-50 261c0 2 0 5 0 6 0 6 0 11 1 16l0 8c0 9 2 16 2 24l0 2c1 8 1 15 3 23 0 1 0 2 0 4l0 4c1 6 1 10 2 14 0 2 2 5 2 6l1 6c0 4 2 7 3 11 0 1 2 4 2 6l1 5c1 3 1 6 3 10 0 2 1 3 1 5l-105 0c-38-44-60-100-63-157l147 0z m20-189c0 2-2 3-2 4-1 3-1 6-2 10l-2 6c0 2-1 3-1 4-2 5-2 7-3 12l-2 4c0 1-1 4-1 6-1 4-1 8-3 14l0 4c0 2 0 3 0 4-1 8-1 15-3 23l0 2c-1 8-1 15-1 24l0 10c0 4 0 10 0 14 0 1 0 4 0 6l0 7-147 0c3-57 26-113 64-155z m178 333c1-3 1-6 2-9l2-7c0-1 1-3 1-4 2-4 2-7 3-11l0-6c0-1 2-4 2-6 1-4 1-10 2-14l0-3c0-1 0-4 2-5 1-8 1-15 3-22l0-1c1-9 1-16 1-24 0-2 0-3 0-5l0-5c0-6 0-10 2-16 0-1 0-4 0-6l0-7 146 0c-3 57-26 113-64 155l-104 0c0-1 2-3 2-4z m-168 37l1 4c3 3 4 7 6 12 1 4 3 7 6 11l1 3c1 3 3 6 4 8l2 2c1 3 4 5 5 8-41-8-79-27-112-54l85 0c0 2 2 3 2 6z m159-182c0 3 0 4 0 7 0 4 0 7 0 11l0 9c0 1 0 3 0 4 0 4 0 7-1 12l0 7c0 1 0 3 0 5 0 6-2 13-3 19l0 4c-2 7-3 14-3 21 0 2 0 3-1 5l-3 4c-2 4-2 7-3 11 0 2-2 3-2 6l-1 6c-1 3-1 7-3 10 0 1-1 3-1 5l-2 6-121 0-1-6c0-1-1-2-1-5-2-3-2-6-2-9l-1-7c0-1-2-3-2-4-1-4-1-9-3-13l2-6c0-1 0-3-2-4-1-7-2-14-2-21l0-2c-2-7-2-14-3-21 0-1 0-3 0-4l0-3c0-6-2-12-2-16 0-1 0-4 0-5l0-8c0-4 0-7 0-11 0-3 0-4 0-7l0-6 164 0z m-21 219c1-3 3-6 4-9l1-2c5-8 8-16 10-23l2-3c1-1 1-4 3-6l85 0c-33 27-71 46-112 54 1-3 4-5 5-8z m-10-40c0 2-2 3-2 4l-1 5c0 1-1 2-1 4l-3 3c0 1-2 3-2 4l-1 3c0 1-2 1-2 3l-5 10c0 0-2 1-2 3l-1 1c0 0-2 1-2 1 0 0-1 2-1 2l-1 3c0 0-2 1-2 1l-3 3c0 0-1 1-1 1l-3 2c0 0-1 0-1 1l-2 2c0 0-1 0-1 1l-3 1c0 0 0 0-1 0l-2 0c-1 0-1 0-1 0l-2 0c-3 0-4 0-5 0l-2 0c-1 0-1 0-3 0l-1 0c0 0-2 0-2 0l-1-1c0 0-1 0-1-1l-3-5c-2 0-2-1-2-1l-1-2c0 0-1-1-1-1l-2-1c-1-2-1-2-1-2l-2-1c-1-2-1-2-1-3l-2-3c-1-1-1-1-1-3 0 0-1-1-1-1l-2-2c0-1-1-1-1-2l-2-3c-1-2-1-3-3-5l-7-5c0-2-1-3-1-3 0-2-2-3-2-4 0-2-1-3-1-3-1-2-1-3-1-4 0-2 0-2-2-3l103 0z m-131-225c0-4 0-7 0-11l0-7c0-2 0-4 0-6 0-4 1-10 1-14l0-4c0-2 0-3 0-5 2-7 2-14 3-21l0-1c2-7 3-15 3-22 0-1 0-2 1-4l2-4c1-4 1-9 3-12 0-1 1-2 1-5l2-6c1-3 1-6 2-10 0-1 2-3 2-6l1-5 121 0 2 5c0 2 1 3 1 6 1 3 1 6 1 9l2 7c0 1 0 3 1 4 2 3 2 7 3 10l2 6c0 1 0 3 1 4 1 7 3 14 3 21l0 5c1 5 1 11 3 18 0 1 0 3 0 6l0 5c0 5 1 9 1 13 0 2 0 3 0 6l0 8c0 3 0 8 0 10 0 2 0 5 0 8l0 5-163 0 0-5c1-3 1-5 1-8z m189 13l0-7c0-1 0-4 0-7 0-6 0-10-1-16l0-10c0-8-2-15-2-24l0-1c-1-7-1-14-3-22 0-1 0-2-1-5l-1-7c0-5-2-7-2-12 0-1-1-4-1-5l-2-8c0-2-1-5-1-8 0-3-2-4-2-7l-1-6c-1-3-1-6-3-8 0-2-1-3-1-5l104 0c38 43 59 98 64 155z m-30-188l-1-2c-3-9-7-16-10-23l-2-3c-1-3-2-6-4-9l-1-1c-2-3-5-6-6-8 41 8 80 27 112 54l-85 0c-1-5-3-6-3-8z m-128 3c0-1 2-3 2-4 0-1 1-3 1-4l1-4c0-2 2-3 2-5l3-4c0-1 1-1 1-3 0-1 2-3 2-3l4-5c1-2 1-2 1-3l5-5c0 0 1-1 1-1l1-1c0 0 2-2 2-2 0 0 1-1 1-1l3-3c0 0 2-1 2-1l1 0c1-2 1-2 1-2 0 0 2 0 2-1l3-2c0 0 0 0 1 0l1-1-2-3 1 3c0 0 1 0 1 0l2 0c1 0 1 0 3 0l1 0c2 0 2 0 3 0 1 0 1 0 3 0l1 0c2 0 2 0 3 0l2 0c1 0 1 0 1 1l3 2c0 0 1 0 1 1l3-3-3 2 2 0c1 0 1 1 1 1 0 0 0 0 1 0l5 4c1 2 1 2 1 2l3 3c0 1 1 1 1 1l2 3c1 1 1 1 1 3l2 3c1 1 1 2 1 2l2 3c0 2 1 2 1 3l1 3c0 1 2 3 2 4l1 3c0 2 2 3 2 4l4 10-102 0c4 2 5 2 5 0z"/>
<glyph glyph-name="other-menu3" unicode="&#74;" d="M306 462c0-27-23-50-50-50-27 0-50 23-50 50 0 28 23 50 50 50 27 0 50-22 50-50z m0-206c0-27-23-50-50-50-27 0-50 23-50 50 0 27 23 50 50 50 27 0 50-23 50-50z m0-206c0-28-23-50-50-50-27 0-50 22-50 50 0 27 23 50 50 50 27 0 50-23 50-50z"/>
<glyph glyph-name="other-message" unicode="&#75;" d="M256 240c-1 0-4 0-6 2l-250 105 0-235c0-17 14-31 31-31l448 0c17 0 32 14 32 31l0 235-249-105c-2-2-5-2-6-2z m225 192l-450 0c-17 0-31-14-31-32l0-19 256-108 256 108 0 19c0 18-14 32-31 32z"/>
<glyph glyph-name="other-messages" unicode="&#76;" d="M496 182l0 236c0 26-10 50-27 66-17 18-41 28-67 28l-292 0c-26 0-50-10-67-27-17-17-27-41-27-67l0-236c0-26 10-50 27-65 17-16 39-27 65-27l176 0 118-86c6-4 16-3 20 3 3 4 3 9 3 13l-15 70c22 1 44 11 59 27 16 15 27 39 27 65z m-330 104c0-19-15-34-34-34-18-2-32 14-32 34 0 18 15 34 34 34 17 0 32-16 32-34z m214-34c-19 0-34 15-34 34 0 18 15 34 34 34 18 0 34-16 34-34 0-19-16-34-34-34z m-124 0c-18 0-34 15-34 34 0 18 16 34 34 34 18 0 34-16 34-34 0-19-16-34-34-34z"/>
<glyph glyph-name="other-name" unicode="&#77;" d="M0 24c0 98 55 186 144 231 45-62 130-76 193-30 11 8 23 20 31 31 87-44 144-134 144-232z m255 226c-66 0-120 53-120 120 0 67 53 119 120 119 65 0 119-52 119-119 0-67-54-120-119-120z"/>
<glyph glyph-name="other-notification" unicode="&#78;" d="M192 64l128 0c0-36-28-64-64-64-36 0-64 28-64 64z m67 448c-27 1-50-18-50-46 0-1 0-1 0-2l0-25c-57-19-95-73-95-135l0-39c0-26-10-50-29-69l-7-7c-13-14-17-34-8-51 8-16 24-26 42-26l292 0c26 0 45 20 45 46l0 1c0 12-4 22-10 30l-14 17c-15 17-23 40-23 63l0 37c0 61-38 115-95 135l0 20c-3 27-23 50-48 51z"/>
<glyph glyph-name="other-number" unicode="&#79;" d="M158 511c-29 0-51-21-54-48l304 0c-3 27-25 48-54 48z m-54-72l0-341 304 0 0 341z m0-366l0-18c0-30 24-56 55-56l195 0c30 0 56 25 56 56l0 18z m109-24l86 0c7 0 12-5 12-13 0-7-5-12-12-12l-86 0c-7 0-12 5-12 12 0 8 5 13 12 13z"/>
<glyph glyph-name="other-password" unicode="&#80;" d="M384 334l0 50c0 71-57 128-128 128-71 0-128-57-128-128l0-50c-40-35-64-85-64-142 0-107 85-192 192-192 107 0 192 85 192 192 0 57-24 108-64 142z m-97-175c0-17-14-31-31-31-17 0-31 14-31 31l0 64c0 17 14 32 31 32 17 0 31-15 31-32z m33 214c-20 7-41 11-64 11-23 0-44-4-64-11l0 11c0 36 28 64 64 64 36 0 64-28 64-64z"/>
<glyph glyph-name="other-phone" unicode="&#81;" d="M412 265l33 0c0 99-81 182-182 182l0-35c83 0 149-66 149-147z m83-116l-132 50-50-50c-66 44-121 100-165 165l50 50-50 132-9 0c-37 0-71-14-96-39-27-27-43-64-43-103 0-25 7-51 20-72 62-108 152-198 260-261 23-12 47-20 73-20 38 0 75 16 102 43 26 26 40 61 40 97z m-230 363l0-33c118 0 214-96 214-214l33 0c0 136-111 247-247 247z"/>
<glyph glyph-name="other-power" unicode="&#82;" d="M21 238c0 65 27 115 54 147 27 32 53 47 54 49 17 10 40 4 50-13 10-17 4-40-13-50 0 0-1 0-1-1-1-2-4-3-9-6-7-6-17-14-25-26-19-22-37-55-37-100 0-46 18-87 48-117 30-30 70-48 115-48 46 0 86 18 116 48 29 30 48 71 48 117 0 44-17 75-36 98-17 21-35 34-37 34-17 10-22 32-12 50 10 17 32 22 49 12 3-1 29-17 54-48 27-31 55-81 55-148-3-129-109-236-238-236-129 0-235 107-235 238z m199 18l0 219c0 20 16 37 36 37 20 0 36-17 36-37l0-219c0-20-16-37-36-37-20 0-36 17-36 37z"/>
<glyph glyph-name="other-relay" unicode="&#83;" d="M452 512l-392 0c-33 0-60-27-60-60l0-394c0-31 27-58 60-58l394 0c32 0 59 27 59 60l0 392c-1 33-28 60-61 60z m-217-100c0 12 10 22 21 22 11 0 21-10 21-22l0-136c0-11-10-21-21-21-11 0-21 10-21 21z m-94-312c0-12-10-22-22-22-11 0-19 9-19 22l0 140c0 12 10 22 21 22 11 0 21-10 21-22l0-140z m166-22l-102 0c-12 0-22 10-22 22 0 11 10 21 22 21l102 0c12 0 22-10 22-21 0-13-10-22-22-22z m0 76l-102 0c-12 0-22 10-22 21 0 11 10 21 22 21l102 0c12 0 22-10 22-21 0-11-10-21-22-21z m107-54c0-12-10-22-21-22-12 0-22 10-22 22l0 140c0 12 10 22 22 22 11 0 21-10 21-22z"/>
<glyph glyph-name="other-replaice" unicode="&#84;" d="M455 370l-142 0 0 142-114 0 0-313 256 0z m-114 142l0-114 114 0z m-170-199l-114 0 0-313 256 0 0 171-142 0z m284-228l0 29 29 0-57 57-57-57 28 0 0-29c0-15-13-28-28-28l-29 0 0-57 29 0c47 0 85 38 85 85z m-313 313l-28 0 0 29c0 15 13 28 28 28l29 0 0 57-29 0c-47 0-85-38-85-85l0-29-29 0 57-57z"/>
<glyph glyph-name="other-saving" unicode="&#85;" d="M502 357c-4 6-10 10-16 16-12 12-25 25-37 37-15 15-31 31-45 45-13 13-26 26-38 39-6 5-12 11-18 17-1 1-4 1-7 1l-276 0c-7 0-14 0-19 0-18-3-30-13-35-28-1-5-2-10-2-15l0-422c0-1 0-3 0-4 0-12 4-22 11-30 8-9 20-13 30-13 1 0 3 0 5 0l407 0c16 0 30 9 37 23 3 5 4 13 4 20l0 307c0 3 0 6-1 7z m-438 0l0 94c0 0 0 0 1 1 0 0 0 0 2 0 10 0 20 0 30 0l213 0c3 0 6-3 6-5l0-94c-2-2-3-2-5-2-9 0-19 0-29 0l-214 0c-1 2-4 3-4 6z m294-182c0 0 0-1 0-1 0-5 0-9-1-15-1-7-3-14-6-20-3-8-7-15-11-22-2-2-2-2-3-3 0 0-1-2-1-2 0 0-2-1-2-1 0 0-1-1-1-1-13-16-30-26-49-32 0 0-1 0-1 0-1 0-4-1-6-1-12-3-27-3-39 0-2 0-2 0-3 0-2 0-3 0-5 1 0 0 0 0-1 0 0 0 0 0-1 0 0 0-2 0-2 0 0 0-1 0-1 0 0 0-2 0-2 0-3 2-5 3-8 3-7 3-13 7-20 11 0 0-2 2-2 2 0 0-1 1-1 1-3 2-4 5-7 7-3 3-6 8-9 10-1 2-1 2-2 3-2 2-2 2-3 3 0 0-2 1-2 1 0 0 0 2-1 2-3 4-4 8-6 13 0 0 0 1 0 1 0 0 0 2 0 2 0 1-1 2-1 4 0 0 0 1 0 1 0 2-2 3-2 3-1 4-3 7-3 11 0 0 0 2 0 2 0 1 0 3 0 4 0 0 0 2 0 2-1 7-1 12 0 19 0 6 2 10 3 16 0 0 0 2 0 2 0 2 2 5 3 7 4 11 10 22 19 32 12 16 28 26 47 32 1 0 1 0 2 0 2 0 2 0 3 1 2 0 3 1 5 1 0 0 1 0 1 0 13 3 27 3 40 0 1 0 1 0 3 0 0 0 1 0 1 0 0 0 1 0 1 0 2 0 2 0 3 0 3 0 5-1 7-2 2 0 5-2 6-3 2-2 4-2 6-3 1-1 3-1 5-3 2-1 3-1 5-3 0 0 1-1 1-1 2-2 2-2 3-3 9-7 17-14 23-23 8-11 14-25 17-41 0-1 1-4 1-6 0-1 0-3 0-4 0-1 0-3 0-4-4 0-4-2-3-3-1 0-1 0 0 0-1 0 0 0 0 0z"/>
<glyph glyph-name="other-scan" unicode="&#86;" d="M428 425c11 0 20-8 20-20l0-116 65 0 0 116c0 47-38 84-83 84l-128 0 0-65z m13-333c-4-4-9-5-14-5l-128 0 0-66 128 0c22 0 44 9 59 25 16 15 25 36 25 59l0 117-66 0 0-117c2-4 0-8-4-13z m-357-5c-6 0-10 1-14 5-5 5-6 9-6 15l0 116-65 0 0-116c0-23 8-44 24-60 15-16 37-24 59-24l127 0 0 65z m-13 333c4 4 9 5 14 5l127 0 0 66-127 0c-22 0-44-9-59-25-16-17-26-38-26-61l0-116 65 0 0 116c0 6 2 10 6 15z"/>
<glyph glyph-name="other-search" unicode="&#87;" d="M512 33l-176 176c10 13 17 26 24 41 40 96-4 205-100 245-22 10-48 14-72 14-104 2-188-82-188-186 0-76 46-144 114-172 65-29 138-16 190 27l177-177z m-324 148c-80 0-144 64-144 143 0 80 64 142 144 142 79 0 143-64 143-143 0-80-65-142-143-142z"/>
<glyph glyph-name="other-send" unicode="&#88;" d="M0 484l512-228-447 36z m0-456l512 228-447-36z"/>
<glyph glyph-name="other-sim" unicode="&#89;" d="M165 327l-28 29-137 0 0-86 165 0z m0-142l0 57-165 0 0-86 137 0z m-20 199c1 0 3 0 3-1 0 0 1 0 1 0 0 0 0 0 2 0 0 0 1-2 3-2l37-37c0 0 1-1 1-3 0 0 0 0 0-1 0 0 0-2 0-2 0 0 0-1 0-1 0 0 0 0 0-1 0-2 0-2 0-3l0-140 125 0 0 126-61 0c-9 0-14 5-14 14 0 0 0 0 0 1l0 53-37 37c-6 6-6 14 0 20 5 5 14 5 20 0l31-32 85 86-170 0 21-22c6-5 6-14 0-19-3-3-6-5-10-5-3 0-7 2-10 5l-43 41-54 0c-41 0-75-34-75-76l0-38 142 0c0 0 2 0 3 0z m-70-370l53 0 114 113 0 38-57 0-34-34c0 0-2-2-3-2 0 0 0 0-2 0-1 0-1 0-1 0 0 0-1 0-1 0 0 0 0 0-2 0-1 0-1 0-3 0l-139 0 0-38c0-43 34-77 75-77z m266 41l42-41 54 0c41 0 75 34 75 76l0 38-142 0c-2 0-2 0-3 0 0 0 0 0-1 0 0 0-2 0-2 0 0 0-1 0-1 0 0 0 0 0-2 0 0 0-1 1-3 1l-31 36-57 0 0-40 37-37c6-6 6-14 0-20-3-3-5-4-10-4-4 0-7 1-10 4l-31 32-87-86 172 0-21 22c-6 5-6 14 0 19 7 6 16 6 21 0z m171 367c0 42-34 76-75 76l-54 0-113-113 0-38 57 0 34 34c0 0 2 2 3 2 0 0 0 0 2 0 0 0 1 0 1 0 0 0 1 0 1 0 0 0 0 0 2 0-2 1 0 1 0 1l142 0z m0-66l-137 0-28-29 0-57 165 0z m0-114l-165 0 0-57 28-29 137 0z"/>
<glyph glyph-name="other-sim-status" unicode="&#90;" d="M256 0c142 0 256 114 256 256 0 142-114 256-256 256-142 0-256-114-256-256 0-142 114-256 256-256z m37 158c0-19-17-34-37-34-20 0-37 15-37 34l0 104c0 18 17 34 37 34 20 0 37-16 37-34z m-37 230c20 0 37-17 37-37 0-20-17-37-37-37-20 0-37 17-37 37 0 22 17 37 37 37z"/>
<glyph glyph-name="other-speed" unicode="&#48;" d="M71 43c3 0 4 0 7 1 46 27 111 43 178 43 67 0 132-16 178-43 5-3 13-1 17 3 40 47 61 105 61 166 0 141-115 256-256 256-141 0-256-115-256-256 0-61 21-119 61-166 3-3 7-4 10-4z m53 78l-30-17c-2-2-4-2-7-2-5 0-9 3-12 8-4 5-1 14 5 17l30 17c5 4 14 1 17-5 5-7 4-15-3-18z m315-11c-2-5-7-8-11-8-3 0-4 0-7 2l-30 17c-6 3-8 11-4 17 3 6 11 8 17 4l30-17c7-1 10-10 5-15z m25 103c0-7-6-12-13-12l-34 0c-7 0-13 5-13 12 0 7 6 13 13 13l34 0c7 0 13-6 13-13z m-76 91l30 17c6 5 14 2 17-4 4-6 2-14-4-17l-30-17c-1-1-4-1-7-1-4 0-9 2-11 7-3 4 0 11 5 15z m-62 53l17 30c3 6 11 8 17 4 6-3 8-11 4-17l-17-30c-3-4-7-7-11-7-3 0-5 0-6 1-6 5-9 13-4 19z m-83 51c0 7 6 13 13 13 7 0 13-6 13-13l0-34c0-7-6-13-13-13-7 0-13 6-13 13z m-18-168c14 13 123 66 129 69 2 1 4 0 6-2 1-1 1-4 0-5-3-5-67-107-81-121-9-7-19-10-29-10-11 0-22 4-30 12-14 18-12 42 5 57z m-70 151c6 4 14 2 17-4l17-30c4-6 2-14-4-17-2-2-4-2-7-2-4 0-9 3-12 8l-17 29c-3 5 0 13 6 16z m-75-75c4 5 11 8 17 4l30-17c5-3 8-11 4-17-3-4-7-7-12-7-2 0-4 0-7 1l-27 19c-7 3-8 11-5 17z m-32-103c0 7 6 13 13 13l34 0c7 0 13-6 13-13 0-7-6-12-13-12l-34 0c-7 0-13 5-13 12z"/>
<glyph glyph-name="other-unit" unicode="&#49;" d="M71 43c3 0 4 0 7 1 46 27 111 43 178 43 67 0 132-16 178-43 5-3 13-1 17 3 40 47 61 105 61 166 0 141-115 256-256 256-141 0-256-115-256-256 0-61 21-119 61-166 3-3 7-4 10-4z m53 78l-30-17c-2-2-4-2-7-2-5 0-9 3-12 8-4 5-1 14 5 17l30 17c5 4 14 1 17-5 5-7 4-15-3-18z m315-11c-2-5-7-8-11-8-3 0-4 0-7 2l-30 17c-6 3-8 11-4 17 3 6 11 8 17 4l30-17c7-1 10-10 5-15z m25 103c0-7-6-12-13-12l-34 0c-7 0-13 5-13 12 0 7 6 13 13 13l34 0c7 0 13-6 13-13z m-76 91l30 17c6 5 14 2 17-4 4-6 2-14-4-17l-30-17c-1-1-4-1-7-1-4 0-9 2-11 7-3 4 0 11 5 15z m-62 53l17 30c3 6 11 8 17 4 6-3 8-11 4-17l-17-30c-3-4-7-7-11-7-3 0-5 0-6 1-6 5-9 13-4 19z m-83 51c0 7 6 13 13 13 7 0 13-6 13-13l0-34c0-7-6-13-13-13-7 0-13 6-13 13z m-18-168c14 13 123 66 129 69 2 1 4 0 6-2 1-1 1-4 0-5-3-5-67-107-81-121-9-7-19-10-29-10-11 0-22 4-30 12-14 18-12 42 5 57z m-70 151c6 4 14 2 17-4l17-30c4-6 2-14-4-17-2-2-4-2-7-2-4 0-9 3-12 8l-17 29c-3 5 0 13 6 16z m-75-75c4 5 11 8 17 4l30-17c5-3 8-11 4-17-3-4-7-7-12-7-2 0-4 0-7 1l-27 19c-7 3-8 11-5 17z m-32-103c0 7 6 13 13 13l34 0c7 0 13-6 13-13 0-7-6-12-13-12l-34 0c-7 0-13 5-13 12z"/>
<glyph glyph-name="other-view-password" unicode="&#50;" d="M512 257c0 0 0 2 0 0 0 2 0 2 0 2 0 4-3 7-6 10-15 20-35 37-55 52-43 35-91 63-145 74-32 7-63 7-94 2-29-6-56-16-81-29-40-20-77-48-108-81-6-5-12-11-17-18-7-9-7-19 0-27 15-20 35-37 55-53 43-34 91-62 145-74 32-7 63-7 94-1 29 5 56 15 81 28 40 20 77 49 108 81 6 6 12 12 17 19 3 3 5 7 6 10 0 4 0 4 0 5 0-1 0-1 0 0z m-256-99c-54 0-98 44-98 98 0 54 44 98 98 98 54 0 98-44 98-98 0-54-44-98-98-98z m33 98c0-18-15-33-33-33-18 0-33 15-33 33 0 18 15 33 33 33 18 0 33-15 33-33z"/>
</font>
</defs>
</svg>
